<?xml version="1.0" encoding="UTF-8"?>
<!DOCTYPE svg PUBLIC "-//W3C//DTD SVG 1.1//EN" "http://www.w3.org/Graphics/SVG/1.1/DTD/svg11.dtd">
<!-- Creator: CorelDRAW 2021 (64-Bit) -->
<svg xmlns="http://www.w3.org/2000/svg" xml:space="preserve" width="594mm" height="420mm" version="1.1" style="shape-rendering:geometricPrecision; text-rendering:geometricPrecision; image-rendering:optimizeQuality; fill-rule:evenodd; clip-rule:evenodd"
viewBox="0 0 59400 42000"
 xmlns:xlink="http://www.w3.org/1999/xlink"
 xmlns:xodm="http://www.corel.com/coreldraw/odm/2003">
 <defs>
  <style type="text/css">
   <![CDATA[
    .fil0 {fill:#2B2A29}
   ]]>
  </style>
 </defs>
 <g id="Ebene_x0020_1">
  <metadata id="CorelCorpID_0Corel-Layer"/>
  <path class="fil0" d="M40606.44 13473.49c-81.3,-46.32 -176.14,-95.4 -286.96,-144.24 -61.88,-27.27 -128.79,-54.5 -199.83,-80.96 -67.44,-26.92 -139.98,-54.71 -205.36,-77.59 -100.56,-35.2 -184.17,-58.81 -312.54,-90.16 -59.59,-14.55 -128.83,-30.8 -204.83,-46.64l-14.35 -1881.21c-1.72,-227.6 44.01,-270.81 230.53,-377.35l135.53 -77.46c207.04,-118.29 153.3,-59.93 170.02,-317.74 29.23,-450.33 28.83,-930.59 28.83,-1431.31 0,-1583.64 0,-3167.25 0,-4750.86 -306.06,15.37 -666.94,83.56 -974.95,125.17 -532.76,71.93 -423.33,77.52 -909.66,-60.22 -582.87,-165.09 -1356.02,-160.2 -1955.2,-27.63 -1147.78,253.98 -1844.96,1004.2 -2038.08,2239.91 -296.63,1898.23 381.33,3893.72 2578.61,3713.97 773.4,-63.27 992.13,-251.41 1432.86,-644.46 13.87,238.95 23.54,525.7 19.89,826.85 -3.5,289.26 -36.9,254.02 230.17,391.19 194.23,99.73 249.16,128.23 246.15,415.28l-18.65 1761.58c-8.7,-0.26 -17.36,-0.51 -25.98,-0.74 -184.22,-4.86 -347.55,-0.97 -500.67,7.3 -153.11,8.26 -296.01,20.9 -428.45,34.66 -109.19,11.35 -211.28,23.49 -299.29,34.82 -81.56,8.37 -169.02,20.3 -266.59,36.81 -285.83,48.36 -658.47,136.17 -1066.45,267.9 -25.13,8.12 -50.4,16.39 -75.73,24.8 8.14,236.65 17.66,473.29 20.8,710.23 2.74,205.36 -6.93,412.3 -18.61,619.67 62.08,-42.46 148.45,-89.1 268.74,-145.33 263.82,-123.34 690.65,-292.77 1109.88,-385.89 398.58,-88.54 832.73,-115.66 1242.51,-126.7 4313.49,-116.63 4522.34,11012.37 4777.67,13803.48 209.03,2284.47 1262.82,9867.6 -1176.91,11460.97 -565.46,369.36 -3412.05,1265.85 -4414.58,1019.3 -2504.34,-615.98 -3920.4,-4444.6 -4708.03,-6777.3 -955.24,-2828.8 -1503.31,-6967.72 500.97,-9241.68 1613.67,-1830.82 -46.51,-5238.73 737.18,-7960.87 16.52,-57.42 31.39,-108.45 44.87,-154.58 33.58,-82.81 66.01,-172.55 104.84,-264.62 13.01,-30.82 26.72,-61.93 41.53,-93.19 -5.96,-183.74 -3.92,-369.42 1.15,-556.85 10.81,-399.78 77.65,-865.83 133.84,-1268.13 4.38,-31.4 8.9,-62.81 13.52,-94.25 -76.52,74.99 -171.74,163.47 -292.03,271.17 -1749.45,1566.78 -1633.3,3866.6 -1364.12,6211.62 289.51,2522.32 353.18,2061.49 -826.74,3767.98 -3106.08,4491.92 830.19,16983.82 5884.43,17365.41 943,71.26 3230.5,-526.75 4083.52,-842.21 3793.55,-1402.64 2881.59,-8476 2516.06,-11952.14 -162.23,-1542.62 -189.42,-3249.42 -319.53,-4685.18 -272.92,-3012.98 -850.9,-7516.01 -2812.21,-9840.92 -151.9,-180.07 -253.48,-288.77 -345.8,-366.67 -77.87,-73.92 -164.58,-144.88 -271.59,-215.36 -66.48,-43.78 -140.84,-87.4 -220.38,-129.63zm-33575.74 -2224.05c-379.42,0 -478.54,-7.24 -831.61,-195.44 -137.51,-73.3 -365.65,-249.14 -433.89,-385.38 -176.17,-351.77 799.62,-530.07 1034.94,-530.07l293.44 0c322.57,0 1048.02,138.64 1048.02,398.24 0,144.39 -315.1,407.59 -422.83,478.47 -148.22,97.53 -450.05,234.18 -688.07,234.18zm1278.58 -1488.18c0,-318.75 43.07,-445.59 158.42,-721.91 37.71,-90.32 82.36,-168.73 130.69,-246.59 242.42,-390.5 1187.35,-1266.9 1478.3,-589.31 266.27,620.1 14.96,1391.37 -589.31,1771.75 -448.3,282.2 -1178.1,375.37 -1178.1,-213.94zm-4611.27 -985.13c0,-190.9 -10.21,-323.07 91.55,-495.34 175.97,-297.89 656.89,-107.55 876.75,30.09 278.34,174.27 524.58,432.27 673.84,730.5 118.03,235.85 281.71,787.48 44.82,1023.46 -186.52,185.81 -706.19,67.14 -910.84,-52.64 -428.26,-250.66 -776.12,-729.31 -776.12,-1236.07zm3185.97 -1236.66c376.01,0 699.1,61 959.37,319.21 785.08,778.87 200.31,1923.54 -896.49,1923.54 -467.15,0 -899.56,-271.42 -1083.26,-635.47 -81.45,-161.42 -103.37,-240.33 -123.84,-463.28 -24.19,-263.34 157.3,-654.2 332.51,-802.88 186.04,-157.86 479.45,-341.12 811.71,-341.12zm2934.44 -964.17c0,-202.69 14.7,-628.81 230.56,-628.81 102.04,0 381.16,274.26 467.65,391.72 521.5,708.21 17.39,1683.35 -216.13,1683.35 -179.95,0 -316.81,-423.85 -363.68,-600.49 -62.54,-235.64 -118.4,-562.02 -118.4,-845.77zm-6350.97 1467.22c-116,0 -293.65,-309.26 -343.65,-452.84 -81.44,-233.82 -101.56,-402.8 -72.3,-675.74 58.75,-548 919,-1555.73 919,-359.6 0,417.09 -166.69,1488.18 -503.05,1488.18zm1886.42 -293.44c-561.35,0 -985.13,-452.18 -985.13,-985.14 0,-598.13 303.26,-1084.41 775.29,-1320.74 832.48,-416.79 1551.3,123.07 1551.3,838.66 0,447.15 -130.96,772.15 -413.85,1053.36 -213.53,212.28 -511.5,413.86 -927.61,413.86zm1844.51 -1404.35c0,-357.58 40.7,-576.84 288.09,-822.8 482,-479.2 1218.08,-302.15 1625.06,125.36 448.08,470.69 603.94,1275.01 125.35,1750.81 -454.74,452.1 -1052.61,327.6 -1523.65,-38.11l-242.69 -260.36c-139.53,-193.17 -272.16,-488.62 -272.16,-754.9zm-146.72 -1173.77c-311.5,0 -562.34,-20.26 -817.82,-146.35 -92.09,-45.45 -167.77,-86.5 -245.5,-152.74 -603.86,-514.64 740.34,-1325.92 1620.74,-803.29 155.22,92.14 375.91,238.37 440.39,419.53 166.31,467.19 -571.5,682.85 -997.81,682.85zm1131.85 -1006.09l398.25 -20.96c784.69,0 1341.46,565.34 1341.46,1425.3 0,309.05 -1068.25,-574.3 -1221.25,-728.07 -156.16,-156.95 -518.46,-450.21 -518.46,-676.27zm-4317.81 1383.38c0,-519.4 112.19,-853.02 520.79,-1177 259.43,-205.71 782.45,-329.02 1218.91,-227.34 -2.35,105.38 -76.61,201.48 -131.63,266.61 -162.62,192.52 -434.87,442.8 -629.21,607.45 -45.4,38.45 -978.86,807.68 -978.86,530.28zm5365.83 -4317.82l1027.05 1446.26 -1027.05 -1446.26zm0 0c-213.91,319.44 49.11,90.19 377.28,62.88 -190.67,284.74 -84,104.8 482.09,104.8 -21.75,81.46 -58.89,78.16 -104.8,146.72 824.48,0 323.47,-8.67 314.4,398.25l188.65 0c-43.69,163.58 -211.77,213.39 -293.45,335.36 118.11,56.67 87.97,31.08 209.61,20.96 -46.86,175.49 -258.18,224.23 -293.45,356.33 61.67,14.37 63.97,20.96 146.72,20.96 -131.28,196.06 -305.8,203.69 -335.36,314.4 73.91,17.22 68.86,20.96 167.68,20.96 -50.95,69.54 -358.82,248.65 -461.13,272.49 38.07,51.95 78.91,60.9 167.69,62.88 -46.95,64.07 -120.14,79.24 -206.77,107.63 -77.96,25.55 -168.92,61.1 -254.36,81.01 19.51,73.06 19.34,76.73 104.8,83.84 -43.53,59.42 1.61,29.31 -91.43,55.29l-432.57 49.51c8.4,101 33.99,72.3 83.84,146.73 -418.02,0 -885.67,-78.31 -1148.13,-361.02 -118.43,-127.58 -102.3,-184.64 -172.37,-330.68 70.27,-47.05 116.78,-112.66 188.64,-167.68 68,-52.08 132,-112.77 204.74,-172.54l440.93 -313.65c160.27,-100.23 307.09,-187.1 469.02,-285.54 121.49,-73.85 439.83,-223.79 478.29,-276.28 -232.12,54.08 -847.82,348.52 -1055.31,453.83 -417.91,212.1 -577.33,368.1 -914.95,594.18 -303.43,-70.69 -433.54,-438.23 -322.92,-763.08 77.66,-228.04 264.32,-580.69 448.68,-704.14 5.34,64.26 19.86,100.76 41.92,146.73 171.83,-115.07 113.64,-172.86 356.32,-335.37 0,101.96 7.35,102.33 41.93,167.68 103.07,-27.52 170.24,-207.43 335.36,-251.52 -38.32,79.86 -13.94,101.74 20.96,167.68 137.63,-32.06 172.28,-161.84 377.28,-209.6 -43.79,91.26 -42.03,88.25 0,167.68 115.08,-60.89 276.77,-164.04 440.17,-167.68zm-440.17 0l440.17 0 -440.17 0zm-3793.81 -41.92l3793.81 41.92 -3793.81 -41.92zm0 0c79.72,18.57 133.73,52.67 195.18,98.26 63.45,47.08 107.38,112.35 182.11,132.3 34.58,-65.35 41.92,-65.72 41.92,-167.68 222.34,117.65 209.9,223.62 314.4,251.52 34.58,-65.35 41.92,-65.72 41.92,-167.68 233.56,156.39 167.33,208.8 356.33,335.36l44.85 -145.75c208.99,141.2 622.72,792.84 430.97,1187.51 -55.02,113.25 -185.93,246.11 -308.14,278.74 -141.68,-94.87 -298.78,-237.63 -462.04,-334.45 -375.81,-222.89 -630.51,-385.08 -1058.93,-555 -101.58,-40.29 -193.77,-79.9 -284.74,-113.51 -105.14,-38.85 -202.52,-82.6 -311.28,-107.93 47.94,65.43 174.69,108.49 251.54,146.7 94.63,47.06 161.57,90.51 258.55,139.7 278.06,141.02 990.4,597.12 1203.83,808.36 73.29,72.54 131.65,149.34 214.42,204.77 -100.37,209.2 -159.6,390.91 -475.59,530.5 -248.79,109.91 -511.12,140.23 -865.86,140.23 3.76,-3.26 10.05,-12.8 11.75,-9.19l46.19 -37.66c46.68,-47.5 31.03,-19.62 46.86,-78.91 -144.7,-69.43 -433.54,-2.29 -524.01,-125.76 86.63,-7.21 87.34,-26.47 125.77,-83.84 -89.9,-20.95 -154.92,-40.07 -243.93,-70.48l-238.16 -97.2 78.22 -26.59c40.94,-13.16 48.56,-14.65 89.46,-36.29 -71.64,-97.78 -358.59,-161.28 -461.13,-314.41 93.17,0 122.29,10.88 188.65,-20.96 -32.59,-44.47 -138.45,-107.87 -189.07,-146.29 -63.01,-47.81 -123.18,-102.28 -167.26,-168.11 394.25,0 80.59,-37.83 -146.72,-377.29 122.49,28.54 108.07,28.54 230.56,0 -71.15,-134.48 -196.02,-151.25 -293.44,-335.36l188.64 0c0,-213.27 -138.32,-288.28 -167.68,-398.25l482.09 0c-21.75,-81.45 -58.89,-78.16 -104.8,-146.72 58.44,0 123.28,-6.69 143.73,-6.53 22.06,0.18 117.29,5.85 146.43,9.25 104.37,12.19 166.58,57.73 275.76,60.16 -2.84,-127.32 -26.71,-82.37 -83.84,-167.68 117.7,2.62 238.89,47.12 344.06,78.83 257.67,77.67 42.35,-117.75 12.27,-162.67 195.97,16.31 364.06,157.86 482.08,167.68 0,-122.14 7.59,-93.75 -41.92,-167.68zm-440.16 -335.37l440.16 335.37 -440.16 -335.37zm0 0c-180.45,0 -148.78,65.05 -274.83,81.5 -154.27,20.15 -155.63,-17.14 -272.54,62.82 -78.39,53.62 3.74,33.4 -102.24,44.49 -52.88,5.54 -104.76,-3.38 -163.18,4.5 -101.88,13.73 -160.54,41.32 -229.13,106.23 -144.22,136.48 -323.86,-35.8 -433.55,217.21 -47.15,108.76 -27.41,128.76 4.4,243.87 26.31,95.25 34.8,9.92 -14.66,98.85 -68.5,123.12 -59.59,196.12 13.2,321.29 50.54,86.92 34.82,34.34 28.05,140.16 -15.58,243.93 79.27,198.35 115.3,322.67 53.58,184.9 -59.57,168.62 156.04,368.17 94.16,87.14 -44.63,121.8 171.67,331.16 41.8,40.46 84.87,63.46 114.94,94.67 81.34,84.41 30.13,154.92 182.29,257.88 194.13,131.37 120.32,-24.02 247,193.16 49.49,84.85 161.82,147.77 289.56,150.61l0 41.92c-184.96,43.09 -525.98,366.64 -658.36,557.35 -388.09,559.1 -196.52,963.1 -347.56,1182.54 -47.22,68.62 -109.14,84.33 -173.13,141.28 -582.76,518.68 -780.97,1397.34 -334.68,2105.87 245.63,389.95 116.95,27.49 264.68,552.77 76.04,270.38 101.93,207.73 188.7,607.8 34.26,157.97 80.63,272.85 144.79,400.17 166.05,329.53 474.35,643.41 803.29,810.66 67.45,34.3 125.73,49.86 187.83,84.64l491.41 326.05c119.83,68.59 229.1,120.49 362.02,182.94 217.29,102.08 130.43,-0.92 333.7,190.32 278.28,261.8 742.5,487.16 1147.74,487.16 606.24,0 896.56,-95.17 1347.94,-475.6 188.54,-158.91 122.11,-113.33 343.9,-201.07 408.22,-161.49 553.85,-308.7 840.62,-500.84 118.54,-79.41 188.04,-46.17 515.93,-301.52 288.73,-224.83 542.61,-589.6 628.26,-964.72l119.97 -425c81.43,-245.95 113.67,-471.16 209.16,-587.32 478.9,-582.48 489.46,-1331.29 81.78,-1952 -70.17,-106.84 -177.71,-246.15 -281.33,-326.51 -61.4,-47.62 -128.64,-84.53 -175.11,-139.29 -62.81,-74.04 -62.65,-118.14 -68.63,-245.78 -21.69,-463.48 -160.86,-830.45 -431.41,-1119.65l-31.08 -31.81c-307.09,-293.03 -398.25,-290.14 -500.93,-379.4 352.72,-82.17 295.48,-202.8 365.64,-263.16 49.33,-42.43 170.07,-41.89 271.78,-168.39 114.4,-142.3 -39.21,-62.24 185.03,-255.14 155.45,-133.73 136.48,-158.21 165.14,-275.02 21.16,-86.24 39.27,-69.78 96.6,-133.98 132.53,-148.41 46.01,-226.88 86.43,-311.6 31.75,-66.53 140.36,-94 127.49,-310.67 -6.61,-111.39 -32.38,-48.14 25.16,-143.06 124.85,-206.01 26.65,-251.36 -3.21,-338.6 -24.7,-72.14 154.75,-440.71 -233.07,-480.35 -161.8,-16.53 -85.97,28.89 -192.73,-58.78 -127.74,-104.91 -240.91,-102.17 -391.97,-111.08 -157.1,-9.26 -58.53,-40.02 -175.5,-76.03 -75.38,-23.22 -156.26,6.59 -232.19,-19.33 -122.95,-41.98 -12.67,-73.09 -283.24,-73.09 -89.7,0 -120.39,33.63 -167.82,31.98 -118.72,-4.12 -93.73,-122.35 -406.95,2.54 -107.3,42.78 -89.39,7.41 -263.64,7.41 -100.18,0 -132.29,68.68 -232.53,81.87 -161.65,21.27 -217.73,-41.44 -379.98,123.07 -154.03,156.16 -113.25,-22.45 -343.2,159.85 -109.46,86.78 -241.12,233.72 -314.41,356.31 -118.97,198.97 -113.14,239.77 -188.47,398.43l-29.59 54.24c-67.09,-287.95 -297.94,-640.5 -526.7,-814.76 -141.75,-107.98 -57.71,-57.07 -246.34,-89.02 -93.28,-15.81 -109.78,-97.15 -191.17,-144.2 -93.99,-54.33 -151.08,-29.48 -276.53,-34.6 -86.64,-3.54 -119.62,-91.19 -247.44,-91.19 -201.29,0 -46.66,67.86 -355.3,-42.95 -95.95,-34.45 -59.13,1.9 -84.87,-61.86 -144.57,3.22 -102.92,53.33 -185.99,55.75 -44.27,1.29 -115.92,-34.79 -212.25,-34.79zm32899.69 35485.8l-2057.32 -4267.3c-300.22,-472.25 -1061.28,-1762.88 -1033.47,-2218.85 69.23,-1136.28 958.98,-452.37 1419.3,-484.91 342.57,-24.25 314.36,-92.28 460.84,-174.27l570 -3943.83c131.9,-597.98 1286.75,-483.43 1212.86,236.57 5.24,1004.37 -181.6,2193.14 -301.28,3087.42 -138.1,1030.55 -92.41,2605.82 -41.26,3665.48 84.73,1755.51 761.25,3137.27 1043.55,3953.08 99.96,288.84 466.66,824.44 -261.06,860.56 -141.79,7.04 -736.63,-114.02 -1012.16,-713.95zm-1400.2 -28693.86c-57.44,-792.47 -39.08,-2204.43 523.8,-2600.55 335.81,-236.37 955.07,-135.64 1277.77,56.1 213.54,126.86 137.94,380.75 137.61,651.94 -1.33,1083.38 197.3,3025.55 -505.35,3438.44 -426.65,250.73 -944.3,35.98 -1139.1,-271.63 -173.72,-274.29 -267.83,-903.27 -294.73,-1274.3zm-137.06 8494.85c483.45,-268.16 978.11,-249.8 1467.64,97.5 1940.97,1376.85 2537.28,8177.71 2668.78,10330.26 137.56,2253.45 439.6,4375.06 474.49,6736.86 33.45,2260.42 310.32,5243.97 -1615.52,5836.73 -3394.97,1044.79 -6483.74,-8505.82 -5471.61,-12488.88 332.88,-1309.64 832.72,-1545.87 1278.29,-2383.43 1138.28,-2139.69 -246.81,-4741.73 203.85,-6710.14 326.52,502.43 810.14,895.44 1385.82,1078.98 429.22,136.85 1168.09,196.41 1369.26,-327.97 157.52,-410.66 -32.99,-771.56 -393.82,-990.58 -105.73,-64.18 -263.03,-105.07 -382.41,-142.95 -111.02,-35.22 -240.18,-76.03 -342.96,-130.22 -388.85,-204.97 -564.69,-519.47 -641.81,-906.16zm-6130.25 -12354.28l934.79 4022.06 -1873.3 -2.15 938.51 -4019.91zm-13055.56 -373.64c1248.39,-179.01 1926.17,121.23 1989.51,1381.1 63.12,1255.55 -364.09,1797.71 -1556.22,1868.79 -211.9,771.08 1545.6,1129.37 2713.98,313.76 1187.16,-828.73 1913.41,-4064.08 -1485.34,-4493.28 -1173.97,-148.25 -2596.75,-7.1 -3788.7,87.17l-0.56 8314.24 2111.97 -8.52 15.36 -7463.26zm26380.76 3957.89c-51.61,-457.31 121.11,-1475.24 281.55,-1858.85 348.38,-833.18 1082.84,-710.37 1345.23,-355.13 331.03,448.23 306.96,1271.58 26.79,1725.6 -247.17,400.58 -1005.19,531.53 -1653.57,488.38zm6589.54 3511.7c0,-1306.43 -30.31,-2649.74 5.4,-3951.49 13.56,-494.31 51.37,-1360.94 342.07,-1619.52 184.74,-164.34 546.84,-174.56 740.77,18.63 349.82,348.4 203.65,1035.14 146.28,1476.49 722.78,167.94 1326.25,164.57 1661.18,-420.27 570.4,-995.94 -264.77,-2665.92 -1963.61,-2174.4 -877.6,253.94 -1020.23,889.95 -1202.02,1093.82l-83.83 -1062.87 -1562.24 151.15c-69.33,214.82 -28.12,5760.1 -28.14,6486.89l1944.14 1.57zm-28011.81 -6470.61c0,1540.63 0,3081.28 0,4621.93 0,782.93 -53.5,1432.88 482.94,1823.21 530.61,386.08 1282.91,226.48 1833.08,-89.54 -39.89,-189.95 -211.81,-308.31 -288.85,-567.6 -149.64,-503.36 -75.55,-5152.23 -75.55,-5795.23l-1951.62 7.23zm-157.59 -1812.54c144.69,1069.17 2517.83,1070.85 2322.3,-324.94 -154.09,-1099.9 -2504.88,-1024.08 -2322.3,324.94zm21571.01 5381.51c845.04,-38.6 2164.49,102.95 3009.84,-508.69 789.66,-571.36 832.54,-1895.95 316.79,-2534.46 -870.04,-1077.14 -3670.81,-1283.6 -4842.65,616.5 -792.34,1284.7 -771.46,4227.68 883.53,5193.29 767.47,447.8 1960.25,573 2876.9,207.01 1457.19,-581.83 1339.7,-1814.19 854.74,-2036.75 -242.47,256.57 -218.09,453.69 -750.74,752.27 -329.13,184.51 -806.06,283.69 -1266.01,206.44 -810.06,-136.02 -1044.72,-990.35 -1082.4,-1895.61zm-15026.69 2903.38c216.24,-130.06 397.98,-2012.23 588.78,-2073.87l2228.91 0c117.53,76.95 80.4,62.57 119.76,228.32l423.45 1845.35 2152.21 -2.98c-77.01,-345.26 -2006.33,-7986.12 -2156.73,-8394.59l-2509.77 0.51 -1171.32 4200.71c-309.66,1084.61 -916.96,3186.36 -1150.74,4196.02l1475.45 0.53zm7391.94 4364.61l-0.42 13.12 -0.06 1.94c-10.54,379.61 -1.07,756.87 99.99,1125.46 116.18,412.76 351.2,770.54 805.24,1009.9 237.85,125.33 615.9,207.61 704.44,261.3 302.65,183.76 275.55,385.33 228.65,507.54 -134.34,350.24 -1487.53,222.08 -2146,-987.58 -19.49,-35.99 -45.57,-81.17 -63.87,-118.18 -411.94,-835.48 -271.59,-2105.49 -143.43,-3022.67 107.03,-767.15 269.28,-1380.73 544.14,-2166.37 27.69,-79.16 45.3,-140.6 54.98,-166.91 6.63,-19.97 12.51,-37.41 17.54,-52.28 6.45,-19.08 11.51,-33.99 14.99,-43.96 3.49,-9.98 5.42,-15.03 6.26,-15.87 0.84,-0.84 0.6,2.52 -0.94,38.75 -1.54,36.22 -4.38,105.31 -9.48,229.57 -5.09,124.25 -12.47,303.67 -24.22,549.28 -5.13,107.18 -11.12,227.02 -17.33,352.77 -0.19,13.71 -0.39,27.83 -0.59,42.4 -1.06,52 -2.14,61.38 -7.86,210.24 -9.95,259.12 -27.65,721.28 -39.34,1128.8 -11.69,407.51 -17.36,760.37 -20.74,981.87 -0.69,45.5 -1.31,85.48 -1.95,120.88z"/>
 </g>
</svg>
